<?xml version="1.0" standalone="no"?>
<!DOCTYPE svg PUBLIC "-//W3C//DTD SVG 20010904//EN"
 "http://www.w3.org/TR/2001/REC-SVG-20010904/DTD/svg10.dtd">
<svg version="1.0" xmlns="http://www.w3.org/2000/svg"
 width="338.000000pt" height="338.000000pt" viewBox="0 0 338.000000 338.000000"
 preserveAspectRatio="xMidYMid meet">
<metadata>
Created by potrace 1.14, written by Peter Selinger 2001-2017
</metadata>
<g transform="translate(0.000000,338.000000) scale(0.100000,-0.100000)"
fill="#000000" stroke="none">
<path d="M1478 3364 c-249 -41 -471 -136 -663 -283 -66 -51 -186 -168 -225
-220 -14 -18 -30 -38 -35 -44 -60 -66 -165 -268 -204 -392 -54 -167 -65 -245
-65 -430 0 -238 36 -398 135 -600 95 -192 101 -200 834 -950 50 -51 167 -171
262 -268 l172 -176 58 58 c32 32 204 208 383 391 179 183 372 381 430 440 152
155 235 243 243 256 5 9 -85 12 -341 11 l-348 0 -223 -217 -222 -218 -147 150
c-81 83 -199 203 -262 268 -63 65 -146 150 -184 189 l-68 71 979 0 979 0 36
93 c48 121 57 155 83 312 14 78 14 339 1 395 -5 22 -19 87 -30 145 -3 11 -19
60 -36 109 -142 401 -474 720 -887 855 -79 26 -122 36 -243 58 -60 11 -340 9
-412 -3z m377 -518 c166 -37 288 -104 411 -226 104 -104 194 -284 211 -425 12
-97 3 -246 -17 -301 l-10 -24 -754 0 c-415 0 -757 4 -760 8 -13 22 -33 167
-29 222 12 215 75 368 213 513 114 122 265 204 431 236 49 9 257 8 304 -3z"/>
</g>
</svg>
