<svg width="282" height="338" viewBox="0 0 282 338" fill="none" xmlns="http://www.w3.org/2000/svg">
<g clip-path="url(#clip0_131_4935)">
<path d="M261.531 66.5249C236.791 26.6515 192.067 1.35865e-05 141.002 1.35865e-05C122.484 -0.00804197 104.146 3.56614 87.0359 10.5182C69.9252 17.4704 54.3784 27.6642 41.2837 40.517C28.1889 53.3699 17.8028 68.6297 10.7192 85.425C3.63547 102.219 -0.00699592 120.22 -5.1123e-05 138.397C-5.1123e-05 140.717 0.0592012 143.023 0.177696 145.314C0.887434 159.784 3.92247 174.054 9.1705 187.592C10.5316 191.101 12.0304 194.537 13.6669 197.901C17.853 206.512 22.9353 214.675 28.8326 222.261C30.4339 224.322 32.088 226.333 33.795 228.292L45.0311 239.802L117.569 314.032L141.002 338L160.544 318.007L175.191 303.016L237.041 239.731L248.128 228.414C249.867 226.425 251.553 224.373 253.172 222.284H183.305L138.888 265.859L96.283 222.261L86.9546 212.703L76.2369 201.725C75.1416 200.468 74.0687 199.188 73.0183 197.887H268.333C269.973 194.526 271.471 191.09 272.829 187.578C278.078 174.039 281.112 159.77 281.822 145.3C281.944 143.009 282.003 140.703 282 138.383C282.041 113.038 274.958 88.1735 261.531 66.5249ZM217.427 150.85H65.7213C62.3232 139.307 61.7058 127.147 63.9181 115.329C66.1304 103.511 71.1116 92.3606 78.4683 82.7572C85.825 73.1534 95.3557 65.3605 106.308 59.9938C117.26 54.627 129.333 51.8333 141.574 51.8333C153.815 51.8333 165.888 54.627 176.84 59.9938C187.792 65.3605 197.323 73.1534 204.68 82.7572C212.037 92.3606 217.017 103.511 219.23 115.329C221.442 127.147 220.825 139.307 217.427 150.85Z" fill="url(#paint0_linear_131_4935)"/>
</g>
<defs>
<linearGradient id="paint0_linear_131_4935" x1="40.3186" y1="41.505" x2="237.954" y2="242.842" gradientUnits="userSpaceOnUse">
<stop stop-color="#87FFB3"/>
<stop offset="1" stop-color="#31AC58"/>
</linearGradient>
<clipPath id="clip0_131_4935">
<rect width="282" height="338" fill="white"/>
</clipPath>
</defs>
</svg>
